<svg width="162" height="38" viewBox="0 0 162 38" fill="none" xmlns="http://www.w3.org/2000/svg">
<g filter="url(#filter0_dd_8650_24306)">
<g clip-path="url(#clip0_8650_24306)">
<path d="M3.14085 14.8C3.14085 10.3196 3.14085 8.07937 4.01279 6.36808C4.77978 4.86278 6.00363 3.63893 7.50892 2.87195C9.22022 2 11.4604 2 15.9408 2H22.3408C26.8213 2 29.0615 2 30.7728 2.87195C32.2781 3.63893 33.5019 4.86278 34.2689 6.36808C35.1408 8.07937 35.1408 10.3196 35.1408 14.8V21.2C35.1408 25.6804 35.1408 27.9206 34.2689 29.6319C33.5019 31.1372 32.2781 32.3611 30.7728 33.1281C29.0615 34 26.8213 34 22.3408 34H15.9408C11.4604 34 9.22022 34 7.50892 33.1281C6.00363 32.3611 4.77978 31.1372 4.01279 29.6319C3.14085 27.9206 3.14085 25.6804 3.14085 21.2V14.8Z" fill="white"/>
<path d="M3.14085 14.8C3.14085 10.3196 3.14085 8.07937 4.01279 6.36808C4.77978 4.86278 6.00363 3.63893 7.50892 2.87195C9.22022 2 11.4604 2 15.9408 2H22.3408C26.8213 2 29.0615 2 30.7728 2.87195C32.2781 3.63893 33.5019 4.86278 34.2689 6.36808C35.1408 8.07937 35.1408 10.3196 35.1408 14.8V21.2C35.1408 25.6804 35.1408 27.9206 34.2689 29.6319C33.5019 31.1372 32.2781 32.3611 30.7728 33.1281C29.0615 34 26.8213 34 22.3408 34H15.9408C11.4604 34 9.22022 34 7.50892 33.1281C6.00363 32.3611 4.77978 31.1372 4.01279 29.6319C3.14085 27.9206 3.14085 25.6804 3.14085 21.2V14.8Z" fill="url(#paint0_linear_8650_24306)"/>
<path fill-rule="evenodd" clip-rule="evenodd" d="M19.1408 4.03885C11.4303 4.03885 5.17968 10.2895 5.17968 18C5.17968 25.7106 11.4303 31.9612 19.1408 31.9612C26.8514 31.9612 33.102 25.7106 33.102 18C33.102 10.2895 26.8514 4.03885 19.1408 4.03885ZM5.10201 18C5.10201 10.2466 11.3874 3.96118 19.1408 3.96118C26.8943 3.96118 33.1797 10.2466 33.1797 18C33.1797 25.7535 26.8943 32.0389 19.1408 32.0389C11.3874 32.0389 5.10201 25.7535 5.10201 18Z" fill="#D0D5DD"/>
<path fill-rule="evenodd" clip-rule="evenodd" d="M19.1409 14.0779C16.9746 14.0779 15.2185 15.834 15.2185 18.0002C15.2185 20.1665 16.9746 21.9226 19.1409 21.9226C21.3071 21.9226 23.0632 20.1665 23.0632 18.0002C23.0632 15.834 21.3071 14.0779 19.1409 14.0779ZM15.1409 18.0002C15.1409 15.7911 16.9317 14.0002 19.1409 14.0002C21.35 14.0002 23.1409 15.7911 23.1409 18.0002C23.1409 20.2094 21.35 22.0002 19.1409 22.0002C16.9317 22.0002 15.1409 20.2094 15.1409 18.0002Z" fill="#D0D5DD"/>
<path fill-rule="evenodd" clip-rule="evenodd" d="M19.1408 15.3201C17.6609 15.3201 16.4612 16.5198 16.4612 17.9997C16.4612 19.4796 17.6609 20.6793 19.1408 20.6793C20.6208 20.6793 21.8205 19.4796 21.8205 17.9997C21.8205 16.5198 20.6208 15.3201 19.1408 15.3201ZM16.3836 17.9997C16.3836 16.4769 17.618 15.2424 19.1408 15.2424C20.6637 15.2424 21.8981 16.4769 21.8981 17.9997C21.8981 19.5225 20.6637 20.757 19.1408 20.757C17.618 20.757 16.3836 19.5225 16.3836 17.9997Z" fill="#D0D5DD"/>
<path d="M19.102 2H19.1797V34H19.102V2Z" fill="#D0D5DD"/>
<path d="M35.1408 17.9609L35.1408 18.0386L3.14084 18.0386L3.14084 17.9609L35.1408 17.9609Z" fill="#D0D5DD"/>
<path d="M29.7428 2H29.8205V34H29.7428V2Z" fill="#D0D5DD"/>
<path d="M13.7816 2H13.8593V34H13.7816V2Z" fill="#D0D5DD"/>
<path d="M24.4224 2H24.5001V34H24.4224V2Z" fill="#D0D5DD"/>
<path d="M8.46122 2H8.53889V34H8.46122V2Z" fill="#D0D5DD"/>
<path d="M35.1408 28.6016L35.1408 28.6792L3.14084 28.6792L3.14084 28.6016L35.1408 28.6016Z" fill="#D0D5DD"/>
<path d="M35.1408 12.6406L35.1408 12.7183L3.14084 12.7183L3.14084 12.6406L35.1408 12.6406Z" fill="#D0D5DD"/>
<path d="M35.1408 23.2812L35.1408 23.3589L3.14084 23.3589L3.14084 23.2812L35.1408 23.2812Z" fill="#D0D5DD"/>
<path d="M35.1408 7.32031L35.1408 7.39798L3.14084 7.39798L3.14084 7.32031L35.1408 7.32031Z" fill="#D0D5DD"/>
<g filter="url(#filter1_dd_8650_24306)">
<circle cx="19.1408" cy="18" r="8" fill="#DC2F02"/>
</g>
<g filter="url(#filter2_b_8650_24306)">
<path d="M3.14085 18H35.1408V21.2C35.1408 25.6804 35.1408 27.9206 34.2689 29.6319C33.5019 31.1372 32.2781 32.3611 30.7728 33.1281C29.0615 34 26.8213 34 22.3408 34H15.9408C11.4604 34 9.22022 34 7.50892 33.1281C6.00363 32.3611 4.77978 31.1372 4.01279 29.6319C3.14085 27.9206 3.14085 25.6804 3.14085 21.2V18Z" fill="white" fill-opacity="0.2"/>
</g>
</g>
<path d="M3.24085 14.8C3.24085 12.5581 3.24092 10.8828 3.34951 9.55376C3.458 8.22593 3.6743 7.25268 4.10189 6.41348C4.85929 4.92699 6.06784 3.71845 7.55432 2.96105C8.39352 2.53345 9.36677 2.31715 10.6946 2.20866C12.0236 2.10008 13.699 2.1 15.9408 2.1H22.3408C24.5827 2.1 26.2581 2.10008 27.5871 2.20866C28.9149 2.31715 29.8882 2.53345 30.7274 2.96105C32.2139 3.71845 33.4224 4.92699 34.1798 6.41348C34.6074 7.25268 34.8237 8.22593 34.9322 9.55376C35.0408 10.8828 35.0408 12.5581 35.0408 14.8V21.2C35.0408 23.4419 35.0408 25.1172 34.9322 26.4462C34.8237 27.7741 34.6074 28.7473 34.1798 29.5865C33.4224 31.073 32.2139 32.2816 30.7274 33.039C29.8882 33.4665 28.9149 33.6828 27.5871 33.7913C26.2581 33.8999 24.5827 33.9 22.3408 33.9H15.9408C13.699 33.9 12.0236 33.8999 10.6946 33.7913C9.36677 33.6828 8.39352 33.4665 7.55432 33.039C6.06784 32.2816 4.85929 31.073 4.10189 29.5865C3.6743 28.7473 3.458 27.7741 3.34951 26.4462C3.24092 25.1172 3.24085 23.4419 3.24085 21.2V14.8Z" stroke="#D0D5DD" stroke-width="0.2"/>
</g>
<path d="M45.7668 23.7891H47.5832V12.457H45.7668V9.21094L54.427 9.23438C55.2317 9.23438 55.966 9.37891 56.6301 9.66797C57.302 9.94922 57.8801 10.3359 58.3645 10.8281C58.8488 11.3125 59.2238 11.8828 59.4895 12.5391C59.7629 13.1875 59.8996 13.8789 59.8996 14.6133C59.8996 15.4727 59.7473 16.1836 59.4426 16.7461C59.1457 17.3086 58.7199 17.7617 58.1653 18.1055C58.7512 18.4805 59.2121 18.9453 59.5481 19.5C59.8918 20.0469 60.0637 20.7148 60.0637 21.5039C60.0637 22.3086 59.9231 23.0469 59.6418 23.7188C59.3684 24.3906 58.9895 24.9727 58.5051 25.4648C58.0285 25.9492 57.4621 26.3281 56.8059 26.6016C56.1496 26.8672 55.4426 27 54.6848 27H45.7668V23.7891ZM51.4738 19.6523V23.7891H54.427C54.6535 23.7891 54.8645 23.7305 55.0598 23.6133C55.2629 23.4961 55.4348 23.3438 55.5754 23.1562C55.7238 22.9609 55.841 22.7383 55.927 22.4883C56.0129 22.2305 56.0559 21.9648 56.0559 21.6914C56.0559 21.4023 56.0129 21.1367 55.927 20.8945C55.841 20.6445 55.7238 20.4297 55.5754 20.25C55.427 20.0625 55.2512 19.918 55.0481 19.8164C54.8528 19.707 54.6457 19.6523 54.427 19.6523H51.4738ZM51.4738 12.457V16.4414H54.2629C54.4817 16.4414 54.6887 16.3867 54.884 16.2773C55.0793 16.168 55.2473 16.0234 55.3879 15.8438C55.5363 15.6562 55.6535 15.4492 55.7395 15.2227C55.8254 14.9883 55.8684 14.7461 55.8684 14.4961C55.8684 14.2539 55.8254 14.0117 55.7395 13.7695C55.6535 13.5273 55.5363 13.3086 55.3879 13.1133C55.2473 12.918 55.0793 12.7617 54.884 12.6445C54.6887 12.5195 54.4817 12.457 54.2629 12.457H51.4738ZM64.0546 21.6914L64.0898 22.0547C64.1757 22.4062 64.3203 22.7148 64.5234 22.9805C64.7343 23.2461 64.9804 23.4688 65.2617 23.6484C65.5429 23.8281 65.8554 23.9648 66.1992 24.0586C66.5429 24.1445 66.8906 24.1875 67.2421 24.1875C67.5937 24.1875 67.9257 24.168 68.2382 24.1289C68.5585 24.082 68.8671 24.0234 69.164 23.9531C69.4609 23.875 69.7499 23.7891 70.0312 23.6953C70.3124 23.5938 70.5976 23.4883 70.8867 23.3789L72.1757 25.7812C71.7304 26.0547 71.3203 26.2891 70.9453 26.4844C70.5781 26.6719 70.207 26.8281 69.832 26.9531C69.457 27.0781 69.0585 27.168 68.6367 27.2227C68.2148 27.2852 67.7226 27.3164 67.1601 27.3164C66.1054 27.3164 65.1679 27.1445 64.3476 26.8008C63.5273 26.4492 62.8359 25.9766 62.2734 25.3828C61.7187 24.7891 61.2929 24.0938 60.996 23.2969C60.707 22.5 60.5624 21.6562 60.5624 20.7656C60.5624 19.875 60.7148 19.0391 61.0195 18.2578C61.332 17.4766 61.7695 16.7969 62.332 16.2188C62.8945 15.6328 63.5663 15.1719 64.3476 14.8359C65.1288 14.5 65.996 14.332 66.9492 14.332C67.9023 14.332 68.746 14.4922 69.4804 14.8125C70.2226 15.125 70.8476 15.5625 71.3554 16.125C71.8632 16.6797 72.2538 17.3359 72.5273 18.0938C72.8007 18.8438 72.9492 19.6523 72.9726 20.5195C72.996 20.7148 73.0078 20.9102 73.0078 21.1055C73.0156 21.293 73.0117 21.4883 72.996 21.6914H64.0546ZM66.8554 17.2617C66.4179 17.2617 66.0429 17.3164 65.7304 17.4258C65.4257 17.5273 65.1679 17.6719 64.957 17.8594C64.746 18.0391 64.5781 18.2461 64.4531 18.4805C64.3281 18.7148 64.2304 18.9609 64.1601 19.2188H69.2343C69.1796 18.9531 69.1015 18.7031 68.9999 18.4688C68.8984 18.2344 68.7578 18.0273 68.5781 17.8477C68.3984 17.668 68.1679 17.5273 67.8867 17.4258C67.6132 17.3164 67.2695 17.2617 66.8554 17.2617ZM77.2331 21.6914L77.2682 22.0547C77.3542 22.4062 77.4987 22.7148 77.7018 22.9805C77.9128 23.2461 78.1588 23.4688 78.4401 23.6484C78.7213 23.8281 79.0338 23.9648 79.3776 24.0586C79.7213 24.1445 80.069 24.1875 80.4206 24.1875C80.7721 24.1875 81.1042 24.168 81.4167 24.1289C81.737 24.082 82.0456 24.0234 82.3424 23.9531C82.6393 23.875 82.9284 23.7891 83.2096 23.6953C83.4909 23.5938 83.776 23.4883 84.0651 23.3789L85.3542 25.7812C84.9088 26.0547 84.4987 26.2891 84.1237 26.4844C83.7565 26.6719 83.3854 26.8281 83.0104 26.9531C82.6354 27.0781 82.237 27.168 81.8151 27.2227C81.3932 27.2852 80.901 27.3164 80.3385 27.3164C79.2838 27.3164 78.3463 27.1445 77.526 26.8008C76.7057 26.4492 76.0143 25.9766 75.4518 25.3828C74.8971 24.7891 74.4713 24.0938 74.1745 23.2969C73.8854 22.5 73.7409 21.6562 73.7409 20.7656C73.7409 19.875 73.8932 19.0391 74.1979 18.2578C74.5104 17.4766 74.9479 16.7969 75.5104 16.2188C76.0729 15.6328 76.7448 15.1719 77.526 14.8359C78.3073 14.5 79.1745 14.332 80.1276 14.332C81.0807 14.332 81.9245 14.4922 82.6588 14.8125C83.401 15.125 84.026 15.5625 84.5338 16.125C85.0417 16.6797 85.4323 17.3359 85.7057 18.0938C85.9792 18.8438 86.1276 19.6523 86.151 20.5195C86.1745 20.7148 86.1862 20.9102 86.1862 21.1055C86.194 21.293 86.1901 21.4883 86.1745 21.6914H77.2331ZM80.0338 17.2617C79.5963 17.2617 79.2213 17.3164 78.9088 17.4258C78.6042 17.5273 78.3463 17.6719 78.1354 17.8594C77.9245 18.0391 77.7565 18.2461 77.6315 18.4805C77.5065 18.7148 77.4088 18.9609 77.3385 19.2188H82.4128C82.3581 18.9531 82.2799 18.7031 82.1784 18.4688C82.0768 18.2344 81.9362 18.0273 81.7565 17.8477C81.5768 17.668 81.3463 17.5273 81.0651 17.4258C80.7917 17.3164 80.4479 17.2617 80.0338 17.2617ZM98.2748 19.2773H94.9818V18.0234C94.6615 18.0234 94.3685 18.0469 94.1029 18.0938C93.8373 18.1328 93.6029 18.2031 93.3998 18.3047C93.2045 18.4062 93.0365 18.5469 92.8959 18.7266C92.7631 18.9062 92.6693 19.1289 92.6146 19.3945V23.7891H95.0873V27H87.1654V23.7891H88.9818V18.0703H87.1888V14.8594H92.5912V15.7148C92.9349 15.4414 93.3217 15.2305 93.7513 15.082C94.181 14.9336 94.6498 14.8594 95.1576 14.8594C95.6732 14.8594 96.2045 14.8633 96.7513 14.8711C97.2982 14.8789 97.806 14.8828 98.2748 14.8828V19.2773ZM99.0899 14.8594H105.43V18.0703H103.953L105.934 23.2852L107.844 18.0703H106.531V14.8594H112.871V18.0703H111.254L107.633 27.0469H104.059L100.438 18.0703H99.0899V14.8594ZM121.034 26.3438C120.761 26.5156 120.511 26.6641 120.284 26.7891C120.057 26.9062 119.831 27 119.604 27.0703C119.378 27.1484 119.143 27.2031 118.901 27.2344C118.659 27.2734 118.393 27.293 118.104 27.293C117.378 27.293 116.725 27.1953 116.147 27C115.577 26.7969 115.093 26.5234 114.694 26.1797C114.304 25.8281 114.003 25.418 113.792 24.9492C113.581 24.4727 113.475 23.957 113.475 23.4023C113.475 22.8398 113.581 22.3203 113.792 21.8438C114.011 21.3672 114.323 20.9609 114.729 20.625C115.136 20.2812 115.632 20.0156 116.218 19.8281C116.811 19.6328 117.487 19.5352 118.245 19.5352C118.8 19.5352 119.304 19.5664 119.757 19.6289C120.218 19.6836 120.643 19.7539 121.034 19.8398V19.4648C121.034 19.1602 120.975 18.8984 120.858 18.6797C120.741 18.4531 120.577 18.2695 120.366 18.1289C120.155 17.9805 119.901 17.875 119.604 17.8125C119.307 17.7422 118.983 17.707 118.632 17.707C117.897 17.707 117.249 17.7812 116.686 17.9297C116.132 18.0703 115.597 18.2773 115.081 18.5508L113.956 16.2773C114.753 15.7305 115.585 15.3125 116.452 15.0234C117.327 14.7344 118.253 14.5898 119.229 14.5898C119.987 14.5898 120.686 14.6758 121.327 14.8477C121.975 15.0117 122.53 15.2852 122.991 15.668C123.452 16.043 123.811 16.5352 124.069 17.1445C124.335 17.7539 124.468 18.4961 124.468 19.3711V23.7891H126.097V27H121.034V26.3438ZM118.362 24.5273C118.917 24.5273 119.421 24.4375 119.874 24.2578C120.327 24.0781 120.714 23.8594 121.034 23.6016V22.0547H118.222C118.042 22.0547 117.866 22.082 117.694 22.1367C117.522 22.1914 117.366 22.2695 117.225 22.3711C117.093 22.4727 116.983 22.5977 116.897 22.7461C116.819 22.8945 116.78 23.0664 116.78 23.2617C116.78 23.6211 116.909 23.9219 117.167 24.1641C117.432 24.4062 117.831 24.5273 118.362 24.5273ZM137.834 20.0156C137.834 19.3359 137.654 18.8047 137.294 18.4219C136.935 18.0312 136.459 17.8359 135.865 17.8359C135.459 17.8359 135.048 17.9258 134.634 18.1055C134.22 18.2852 133.818 18.6211 133.427 19.1133V23.7891H135.396V27H127.849V23.7891H129.63V18.0703H127.873V14.8594H133.404V15.9258C133.912 15.5273 134.478 15.2148 135.103 14.9883C135.736 14.7539 136.4 14.6367 137.095 14.6367C138.556 14.6367 139.681 15.0469 140.47 15.8672C141.259 16.6797 141.654 17.8711 141.654 19.4414V23.7891H143.377V27H137.834V20.0156ZM151.703 26.3438C151.43 26.5156 151.18 26.6641 150.953 26.7891C150.727 26.9062 150.5 27 150.274 27.0703C150.047 27.1484 149.813 27.2031 149.571 27.2344C149.328 27.2734 149.063 27.293 148.774 27.293C148.047 27.293 147.395 27.1953 146.817 27C146.246 26.7969 145.762 26.5234 145.364 26.1797C144.973 25.8281 144.672 25.418 144.461 24.9492C144.25 24.4727 144.145 23.957 144.145 23.4023C144.145 22.8398 144.25 22.3203 144.461 21.8438C144.68 21.3672 144.992 20.9609 145.399 20.625C145.805 20.2812 146.301 20.0156 146.887 19.8281C147.481 19.6328 148.157 19.5352 148.914 19.5352C149.469 19.5352 149.973 19.5664 150.426 19.6289C150.887 19.6836 151.313 19.7539 151.703 19.8398V19.4648C151.703 19.1602 151.645 18.8984 151.528 18.6797C151.41 18.4531 151.246 18.2695 151.035 18.1289C150.824 17.9805 150.571 17.875 150.274 17.8125C149.977 17.7422 149.653 17.707 149.301 17.707C148.567 17.707 147.918 17.7812 147.356 17.9297C146.801 18.0703 146.266 18.2773 145.75 18.5508L144.625 16.2773C145.422 15.7305 146.254 15.3125 147.121 15.0234C147.996 14.7344 148.922 14.5898 149.899 14.5898C150.657 14.5898 151.356 14.6758 151.996 14.8477C152.645 15.0117 153.199 15.2852 153.66 15.668C154.121 16.043 154.481 16.5352 154.739 17.1445C155.004 17.7539 155.137 18.4961 155.137 19.3711V23.7891H156.766V27H151.703V26.3438ZM149.032 24.5273C149.586 24.5273 150.09 24.4375 150.543 24.2578C150.996 24.0781 151.383 23.8594 151.703 23.6016V22.0547H148.891C148.711 22.0547 148.535 22.082 148.364 22.1367C148.192 22.1914 148.035 22.2695 147.895 22.3711C147.762 22.4727 147.653 22.5977 147.567 22.7461C147.489 22.8945 147.449 23.0664 147.449 23.2617C147.449 23.6211 147.578 23.9219 147.836 24.1641C148.102 24.4062 148.5 24.5273 149.032 24.5273Z" fill="#F5F5F6"/>
<defs>
<filter id="filter0_dd_8650_24306" x="0.140846" y="0" width="38" height="38" filterUnits="userSpaceOnUse" color-interpolation-filters="sRGB">
<feFlood flood-opacity="0" result="BackgroundImageFix"/>
<feColorMatrix in="SourceAlpha" type="matrix" values="0 0 0 0 0 0 0 0 0 0 0 0 0 0 0 0 0 0 127 0" result="hardAlpha"/>
<feOffset dy="1"/>
<feGaussianBlur stdDeviation="1"/>
<feColorMatrix type="matrix" values="0 0 0 0 0.0627451 0 0 0 0 0.0941176 0 0 0 0 0.156863 0 0 0 0.06 0"/>
<feBlend mode="normal" in2="BackgroundImageFix" result="effect1_dropShadow_8650_24306"/>
<feColorMatrix in="SourceAlpha" type="matrix" values="0 0 0 0 0 0 0 0 0 0 0 0 0 0 0 0 0 0 127 0" result="hardAlpha"/>
<feOffset dy="1"/>
<feGaussianBlur stdDeviation="1.5"/>
<feColorMatrix type="matrix" values="0 0 0 0 0.0627451 0 0 0 0 0.0941176 0 0 0 0 0.156863 0 0 0 0.1 0"/>
<feBlend mode="normal" in2="effect1_dropShadow_8650_24306" result="effect2_dropShadow_8650_24306"/>
<feBlend mode="normal" in="SourceGraphic" in2="effect2_dropShadow_8650_24306" result="shape"/>
</filter>
<filter id="filter1_dd_8650_24306" x="8.14085" y="8" width="22" height="22" filterUnits="userSpaceOnUse" color-interpolation-filters="sRGB">
<feFlood flood-opacity="0" result="BackgroundImageFix"/>
<feColorMatrix in="SourceAlpha" type="matrix" values="0 0 0 0 0 0 0 0 0 0 0 0 0 0 0 0 0 0 127 0" result="hardAlpha"/>
<feOffset dy="1"/>
<feGaussianBlur stdDeviation="1"/>
<feColorMatrix type="matrix" values="0 0 0 0 0.0627451 0 0 0 0 0.0941176 0 0 0 0 0.156863 0 0 0 0.06 0"/>
<feBlend mode="normal" in2="BackgroundImageFix" result="effect1_dropShadow_8650_24306"/>
<feColorMatrix in="SourceAlpha" type="matrix" values="0 0 0 0 0 0 0 0 0 0 0 0 0 0 0 0 0 0 127 0" result="hardAlpha"/>
<feOffset dy="1"/>
<feGaussianBlur stdDeviation="1.5"/>
<feColorMatrix type="matrix" values="0 0 0 0 0.0627451 0 0 0 0 0.0941176 0 0 0 0 0.156863 0 0 0 0.1 0"/>
<feBlend mode="normal" in2="effect1_dropShadow_8650_24306" result="effect2_dropShadow_8650_24306"/>
<feBlend mode="normal" in="SourceGraphic" in2="effect2_dropShadow_8650_24306" result="shape"/>
</filter>
<filter id="filter2_b_8650_24306" x="-1.85915" y="13" width="42" height="26" filterUnits="userSpaceOnUse" color-interpolation-filters="sRGB">
<feFlood flood-opacity="0" result="BackgroundImageFix"/>
<feGaussianBlur in="BackgroundImageFix" stdDeviation="2.5"/>
<feComposite in2="SourceAlpha" operator="in" result="effect1_backgroundBlur_8650_24306"/>
<feBlend mode="normal" in="SourceGraphic" in2="effect1_backgroundBlur_8650_24306" result="shape"/>
</filter>
<linearGradient id="paint0_linear_8650_24306" x1="19.1408" y1="2" x2="19.1408" y2="34" gradientUnits="userSpaceOnUse">
<stop stop-color="white"/>
<stop offset="1" stop-color="#D0D5DD"/>
</linearGradient>
<clipPath id="clip0_8650_24306">
<path d="M3.14085 14.8C3.14085 10.3196 3.14085 8.07937 4.01279 6.36808C4.77978 4.86278 6.00363 3.63893 7.50892 2.87195C9.22022 2 11.4604 2 15.9408 2H22.3408C26.8213 2 29.0615 2 30.7728 2.87195C32.2781 3.63893 33.5019 4.86278 34.2689 6.36808C35.1408 8.07937 35.1408 10.3196 35.1408 14.8V21.2C35.1408 25.6804 35.1408 27.9206 34.2689 29.6319C33.5019 31.1372 32.2781 32.3611 30.7728 33.1281C29.0615 34 26.8213 34 22.3408 34H15.9408C11.4604 34 9.22022 34 7.50892 33.1281C6.00363 32.3611 4.77978 31.1372 4.01279 29.6319C3.14085 27.9206 3.14085 25.6804 3.14085 21.2V14.8Z" fill="white"/>
</clipPath>
</defs>
</svg>
